<!-- icon666.com - MILLIONS vector ICONS FREE --><svg id="interface_essential_by_mad-lab_studio" enable-background="new 0 0 24 24" viewBox="0 0 24 24" xmlns="http://www.w3.org/2000/svg"><g><path d="m2 8h18c.6 0 1-.4 1-1s-.4-1-1-1h-18c-.6 0-1 .4-1 1s.4 1 1 1z" fill="#000000" style="fill: rgb(255, 255, 255);"></path><path d="m2 3h18c.6 0 1-.4 1-1s-.4-1-1-1h-18c-.6 0-1 .4-1 1s.4 1 1 1z" fill="#000000" style="fill: rgb(255, 255, 255);"></path><path d="m17 11h-15c-.6 0-1 .4-1 1s.4 1 1 1h10.5c-.8.8-1.3 1.9-1.4 3h-9.1c-.6 0-1 .4-1 1s.4 1 1 1h9.1c.6 3.3 3.6 5.5 6.9 4.9s5.5-3.6 4.9-6.9c-.5-2.9-3-5-5.9-5zm0 10c-2.2 0-4-1.8-4-4s1.8-4 4-4 4 1.8 4 4-1.8 4-4 4z" fill="#000000" style="fill: rgb(255, 255, 255);"></path><path d="m19 16h-1v-1c0-.6-.4-1-1-1s-1 .4-1 1v1h-1c-.6 0-1 .4-1 1s.4 1 1 1h1v1c0 .6.4 1 1 1s1-.4 1-1v-1h1c.6 0 1-.4 1-1s-.5-1-1-1z" fill="#000000" style="fill: rgb(255, 255, 255);"></path></g></svg>