<!-- icon666.com - MILLIONS vector ICONS FREE --><svg id="Capa_1" enable-background="new 0 0 512.215 512.215" viewBox="0 0 512.215 512.215" xmlns="http://www.w3.org/2000/svg"><g><path d="m270 16.264h-270v180h270zm-60 30-75 56.25-75-56.25zm-180 120v-105l105 78.75 105-78.75v105z" fill="#000000" style="fill: rgb(255, 255, 255);"></path><path d="m234.801 297.435 118.589 59.294 39.778 139.222 119.048-277.778zm143.809 38.364-61.411-30.706 142.585-40.739-60.952 142.222z" fill="#000000" style="fill: rgb(255, 255, 255);"></path><path d="m30 376.264c0-16.542 13.458-30 30-30h90c33.084 0 60-26.916 60-60s-26.916-60-60-60h-60v30h60c16.542 0 30 13.458 30 30s-13.458 30-30 30h-90c-33.084 0-60 26.916-60 60s26.916 60 60 60h255v-30h-255c-16.542 0-30-13.458-30-30z" fill="#000000" style="fill: rgb(255, 255, 255);"></path></g></svg>